<svg xmlns="http://www.w3.org/2000/svg" width="24" height="24" viewBox="0 0 24 24" fill="none" stroke="currentColor" stroke-width="2" stroke-linecap="round" stroke-linejoin="round" class="feather feather-cloud-drizzle">
	<line x1="4" y1="3" x2="4" y2="5"></line>
	
	<line x1="4" y1="9" x2="4" y2="11"></line>
	<line x1="4" y1="15" x2="4" y2="17"></line>
	<line x1="4" y1="21" x2="4" y2="23"></line>
<!-- Right -->
	<line x1="8" y1="7" x2="8" y2="9"></line>
	<line x1="8" y1="13" x2="8" y2="15"></line>
	<line x1="8" y1="19" x2="8" y2="21"></line>
<!-- Center -->
	<line x1="12" y1="3" x2="12" y2="5"></line>
	<line x1="12" y1="9" x2="12" y2="11"></line>
	<line x1="12" y1="15" x2="12" y2="17"></line>
	<line x1="12" y1="21" x2="12" y2="23"></line>
<!-- Left -->
	<line x1="16" y1="7" x2="16" y2="9"></line>
	<line x1="16" y1="13" x2="16" y2="15"></line>
	<line x1="16" y1="19" x2="16" y2="21"></line>

	<line x1="20" y1="3" x2="20" y2="5"></line>
	<line x1="20" y1="9" x2="20" y2="11"></line>
	<line x1="20" y1="15" x2="20" y2="17"></line>
	<line x1="20" y1="21" x2="20" y2="23"></line>
</svg>