<svg width="36" height="36" viewBox="0 0 36 36" xmlns="http://www.w3.org/2000/svg">
    <path d="M19.7498 18.0002L14.0623 12.3127C13.795 12.0453 13.6613 11.705 13.6613 11.2918C13.6613 10.8786 13.795 10.5384 14.0623 10.271C14.3297 10.0036 14.67 9.86995 15.0832 9.86995C15.4964 9.86995 15.8366 10.0036 16.104 10.271L22.8123 16.9793C22.9582 17.1252 23.0615 17.2831 23.1222 17.4533C23.183 17.6234 23.2134 17.8057 23.2134 18.0002C23.2134 18.1946 23.183 18.3769 23.1222 18.547C23.0615 18.7172 22.9582 18.8752 22.8123 19.021L16.104 25.7293C15.8366 25.9967 15.4964 26.1304 15.0832 26.1304C14.67 26.1304 14.3297 25.9967 14.0623 25.7293C13.795 25.462 13.6613 25.1217 13.6613 24.7085C13.6613 24.2953 13.795 23.955 14.0623 23.6877L19.7498 18.0002Z" fill="currentColor"/>
</svg>