<svg width="36" height="36" viewBox="0 0 36 36" xmlns="http://www.w3.org/2000/svg"><path d="M16.2502 17.9998L21.9377 23.6873C22.205 23.9547 22.3387 24.295 22.3387 24.7082C22.3387 25.1214 22.205 25.4616 21.9377 25.729C21.6703 25.9964 21.33 26.13 20.9168 26.13C20.5036 26.13 20.1634 25.9964 19.896 25.729L13.1877 19.0207C13.0418 18.8748 12.9385 18.7169 12.8778 18.5467C12.817 18.3766 12.7866 18.1943 12.7866 17.9998C12.7866 17.8054 12.817 17.6231 12.8778 17.453C12.9385 17.2828 13.0418 17.1248 13.1877 16.979L19.896 10.2707C20.1634 10.0033 20.5036 9.86963 20.9168 9.86963C21.33 9.86963 21.6703 10.0033 21.9377 10.2707C22.205 10.538 22.3387 10.8783 22.3387 11.2915C22.3387 11.7047 22.205 12.045 21.9377 12.3123L16.2502 17.9998Z" fill="currentColor"></path></svg>